<svg width="40" height="40" viewBox="0 0 40 40" fill="none" xmlns="http://www.w3.org/2000/svg">
<path d="M28.6126 7.3251V5.1001H26.1126V7.3251H13.8251V5.1001H11.3251V7.3251H3.5376V36.1501H36.2501V7.3251H28.6126ZM33.7501 33.6501H6.0376V18.1126H33.7501V33.6501ZM6.0376 15.6126V9.8251H11.3251V12.0501H13.8251V9.8251H26.1126V12.0501H28.6126V9.8251H33.7501V15.6126H6.0376Z" fill="white"/>
<path d="M19.175 19.8999H16.7V22.3999H19.175V19.8999Z" fill="white"/>
<path d="M14.9501 24.625H12.4751V27.125H14.9501V24.625Z" fill="#F18917"/>
<path d="M19.175 24.625H16.7V27.125H19.175V24.625Z" fill="white"/>
<path d="M10.7125 24.625H8.23755V27.125H10.7125V24.625Z" fill="white"/>
<path d="M14.9501 29.3625H12.4751V31.8625H14.9501V29.3625Z" fill="white"/>
<path d="M19.175 29.3625H16.7V31.8625H19.175V29.3625Z" fill="#F18917"/>
<path d="M10.7125 29.3625H8.23755V31.8625H10.7125V29.3625Z" fill="#F18917"/>
<path d="M27.675 19.8999H25.2V22.3999H27.675V19.8999Z" fill="white"/>
<path d="M31.9 19.8999H29.425V22.3999H31.9V19.8999Z" fill="white"/>
<path d="M23.4249 19.8999H20.9624V22.3999H23.4249V19.8999Z" fill="#F18917"/>
<path d="M27.675 24.625H25.2V27.125H27.675V24.625Z" fill="#F18917"/>
<path d="M31.9 24.625H29.425V27.125H31.9V24.625Z" fill="white"/>
<path d="M23.4249 24.625H20.9624V27.125H23.4249V24.625Z" fill="white"/>
<path d="M23.4249 29.3625H20.9624V31.8625H23.4249V29.3625Z" fill="white"/>
</svg>
