<svg width="38" height="38" viewBox="0 0 38 38" fill="none" xmlns="http://www.w3.org/2000/svg">
<path d="M33.3984 32.6563H17.0703V30.875C17.0703 30.0913 16.5597 29.4322 15.8531 29.1947L14.7309 11.2753C15.0397 11.2516 15.2891 11.0022 15.2891 10.6875V10.0938H17.6641C17.9906 10.0938 18.2578 9.82656 18.2578 9.50001C18.2578 9.17345 17.9906 8.90626 17.6641 8.90626H15.2891V6.53126H29.5925L31.9675 8.90626H20.0391C19.7125 8.90626 19.4453 9.17345 19.4453 9.50001C19.4453 9.82656 19.7125 10.0938 20.0391 10.0938H23.6016V12.4688C23.6016 12.7953 23.8688 13.0625 24.1953 13.0625H25.4125C25.4897 13.7631 25.8162 14.4341 26.3981 15.0159C26.5109 15.1287 26.5703 15.2772 26.5703 15.4375C26.5703 15.7641 26.3031 16.0313 25.9766 16.0313C25.65 16.0313 25.3828 15.7641 25.3828 15.4375C25.3828 15.1109 25.1156 14.8438 24.7891 14.8438C24.4625 14.8438 24.1953 15.1109 24.1953 15.4375C24.1953 15.9184 24.3853 16.3519 24.7 16.6725L21.66 18.4063H17.6641C17.3375 18.4063 17.0703 18.6734 17.0703 19V21.375C17.0703 21.7016 17.3375 21.9688 17.6641 21.9688H18.2578V25.5313H17.6641C17.3375 25.5313 17.0703 25.7985 17.0703 26.125V28.5C17.0703 28.8266 17.3375 29.0938 17.6641 29.0938H21.8203C22.1469 29.0938 22.4141 28.8266 22.4141 28.5C22.4141 28.1735 22.1469 27.9063 21.8203 27.9063H18.2578V26.7188H32.5078V27.9063H24.1953C23.8688 27.9063 23.6016 28.1735 23.6016 28.5C23.6016 28.8266 23.8688 29.0938 24.1953 29.0938H33.1016C33.4281 29.0938 33.6953 28.8266 33.6953 28.5V26.125C33.6953 25.7985 33.4281 25.5313 33.1016 25.5313H32.5078V21.9688H33.1016C33.4281 21.9688 33.6953 21.7016 33.6953 21.375V19C33.6953 18.6734 33.4281 18.4063 33.1016 18.4063H30.2931L27.2531 16.6725C27.5678 16.3519 27.7578 15.9184 27.7578 15.4375C27.7578 14.9625 27.5737 14.5113 27.2353 14.1788C26.98 13.9234 26.6891 13.5375 26.6 13.0625H27.7578C28.0844 13.0625 28.3516 12.7953 28.3516 12.4688V10.0938H33.3984C33.636 10.0938 33.8556 9.95126 33.9447 9.72563C34.0397 9.50594 33.9862 9.2506 33.82 9.07843L30.2575 5.51593C30.1447 5.40906 29.9963 5.34375 29.8359 5.34375H15.2891V4.75C15.2891 4.42344 15.0219 4.15625 14.6953 4.15625H8.75781C8.43126 4.15625 8.16406 4.42344 8.16406 4.75V5.34375H4.60156C4.27501 5.34375 4.00781 5.61094 4.00781 5.9375V9.5C4.00781 9.82656 4.27501 10.0938 4.60156 10.0938H8.16406V10.6875C8.16406 11.0141 8.43126 11.2812 8.75781 11.2812H9.01906L7.90281 29.1175C7.04187 29.2481 6.38281 29.9844 6.38281 30.875V32.6562H4.89844C4.57188 32.6562 4.30469 32.9234 4.30469 33.25C4.30469 33.5766 4.57188 33.8438 4.89844 33.8438H33.3984C33.725 33.8438 33.9922 33.5766 33.9922 33.25C33.9922 32.9234 33.725 32.6563 33.3984 32.6563ZM31.3203 25.5313H19.4453V21.9688H31.3203V25.5313ZM32.5078 19.5938V20.7813H18.2578V19.5938H32.5078ZM27.8944 18.4063H24.0588L25.9766 17.3078L27.8944 18.4063ZM27.1641 11.875H24.7891V10.0938H27.1641V11.875ZM8.16406 8.90626H5.19531V6.53126H8.16406V8.90626ZM14.6597 29.0938H10.64L14.4875 26.3981L14.6597 29.0938ZM13.2644 15.4375L9.72563 18.9762L10.1413 12.3144L13.2644 15.4375ZM10.7825 11.2813H13.5434L13.7275 14.2262L10.7825 11.2813ZM13.87 16.5062L14.3628 24.3556L10.1887 20.1875L13.87 16.5062ZM9.35156 5.34376H14.1016V10.0938H9.35156V5.34376ZM9.58313 21.2563L13.775 25.4481L9.11404 28.7138L9.58313 21.2563ZM15.8828 32.6563H7.57031V30.875C7.57031 30.5485 7.83751 30.2813 8.16406 30.2813H15.2891C15.6156 30.2813 15.8828 30.5485 15.8828 30.875V32.6563Z" fill="white"/>
<path d="M21.2266 24.3438H22.4141C22.742 24.3438 23.0078 24.0782 23.0078 23.75C23.0078 23.4218 22.742 23.1562 22.4141 23.1562H21.2266C20.8987 23.1562 20.6328 23.4218 20.6328 23.75C20.6328 24.0782 20.8987 24.3438 21.2266 24.3438ZM24.7891 24.3438H25.9766C26.3045 24.3438 26.5703 24.0782 26.5703 23.75C26.5703 23.4218 26.3045 23.1562 25.9766 23.1562H24.7891C24.4612 23.1562 24.1953 23.4218 24.1953 23.75C24.1953 24.0782 24.4612 24.3438 24.7891 24.3438ZM28.3516 24.3438H29.5391C29.867 24.3438 30.1328 24.0782 30.1328 23.75C30.1328 23.4218 29.867 23.1562 29.5391 23.1562H28.3516C28.0237 23.1562 27.7578 23.4218 27.7578 23.75C27.7578 24.0782 28.0237 24.3438 28.3516 24.3438Z" fill="#F18917"/>
</svg>
