<svg width="36" height="36" viewBox="0 0 36 36" fill="none" xmlns="http://www.w3.org/2000/svg">
<path d="M18 3C14.8174 3 11.7652 4.26428 9.51472 6.51472C7.26428 8.76516 6 11.8174 6 15C6 23.1 16.575 32.25 17.025 32.64C17.2967 32.8724 17.6425 33.0001 18 33.0001C18.3575 33.0001 18.7033 32.8724 18.975 32.64C19.5 32.25 30 23.1 30 15C30 11.8174 28.7357 8.76516 26.4853 6.51472C24.2349 4.26428 21.1826 3 18 3ZM18 29.475C14.805 26.475 9 20.01 9 15C9 12.6131 9.94821 10.3239 11.636 8.63604C13.3239 6.94821 15.6131 6 18 6C20.387 6 22.6761 6.94821 24.364 8.63604C26.0518 10.3239 27 12.6131 27 15C27 20.01 21.195 26.49 18 29.475Z" fill="white"/>
<path d="M16.3333 20.4944C16.8266 20.8241 17.4067 21 18 21C18.7957 21 19.5587 20.6839 20.1213 20.1213C20.6839 19.5587 21 18.7956 21 18C21 17.4067 20.8241 16.8266 20.4944 16.3333C20.1648 15.8399 19.6962 15.4554 19.1481 15.2284C18.5999 15.0013 17.9967 14.9419 17.4147 15.0576C16.8328 15.1734 16.2982 15.4591 15.8787 15.8787C15.4591 16.2982 15.1734 16.8328 15.0576 17.4147C14.9419 17.9967 15.0013 18.5999 15.2284 19.148C15.4554 19.6962 15.8399 20.1648 16.3333 20.4944Z" fill="#F18917"/>
</svg>
