<svg width="111" height="51" viewBox="0 0 111 51" fill="none" xmlns="http://www.w3.org/2000/svg">
<g clip-path="url(#clip0_2609_813)">
<path fill-rule="evenodd" clip-rule="evenodd" d="M110.976 18.4808C110.899 19.0184 110.555 19.4962 110.082 19.7292C109.902 19.8148 109.715 19.8646 109.523 19.8725C109.416 20.5356 109.062 21.0154 108.471 21.3041C107.792 21.6346 106.906 21.6684 106.048 21.7003C104.921 21.7441 103.368 21.8417 102.302 22.1981C101.264 23.6595 103.066 24.2369 103.956 22.9865C104.881 23.3668 106.171 24.203 105.425 25.316C105.358 25.4155 105.289 25.5211 105.219 25.6604C105.047 26.0049 105.065 26.423 105.083 26.863C105.103 27.319 105.118 27.7888 104.944 28.2428C104.81 28.5833 104.59 28.8301 104.294 28.9775C103.835 29.2005 103.287 29.1447 102.757 29.093C102.516 29.0691 102.29 29.0472 102.083 29.0492L101.812 29.0551L101.733 28.7943C101.646 28.4996 101.628 28.2687 101.614 28.0994C101.604 27.978 101.596 27.8964 101.566 27.8287C101.537 27.7928 101.509 27.755 101.479 27.7152C101.418 27.6614 101.329 27.6057 101.191 27.53L101.175 27.524C101.003 27.4285 100.882 27.3767 100.799 27.3468C100.764 26.8451 100.68 26.3454 100.52 25.8576C100.398 25.4992 100.228 25.1527 100.016 24.8322C99.8044 24.5136 99.5453 24.2289 99.2645 23.9701C98.9856 23.7132 98.6929 23.4843 98.4042 23.2633C98.1154 23.0403 97.8306 22.8212 97.5696 22.5843C97.3085 22.3514 97.0633 22.1045 96.8695 21.8297C96.7706 21.6963 96.6816 21.551 96.6124 21.4096C96.5352 21.2543 96.472 21.097 96.4166 20.9357C96.3039 20.6152 96.2386 20.2807 96.2228 19.9422C96.201 19.6018 96.2366 19.2593 96.2959 18.9169C96.4166 18.23 96.6836 17.559 96.9466 16.88C97.2176 16.2031 97.5023 15.5182 97.7001 14.7974C97.8939 14.0787 97.9908 13.3121 97.8445 12.5874C97.8583 13.3241 97.6863 14.0349 97.4252 14.7058C97.1701 15.3808 96.8359 16.0259 96.5234 16.6929C96.2089 17.3559 95.9123 18.0508 95.7442 18.8054C95.6611 19.1817 95.6235 19.5739 95.6394 19.9681C95.6552 20.3623 95.7264 20.7566 95.851 21.1289C95.9162 21.314 95.9914 21.4972 96.0764 21.6704C96.1694 21.8556 96.2742 22.0209 96.3948 22.1821C96.6341 22.4987 96.911 22.7735 97.2017 23.0144C97.7871 23.4962 98.4081 23.8845 98.9599 24.3245C99.5057 24.7625 99.9586 25.312 100.247 25.9611C100.459 26.415 100.623 26.9387 100.732 27.4384L100.736 27.4344C100.785 27.6415 100.829 27.8486 100.868 28.0556C101.035 28.7286 101.08 29.2363 100.255 30.0905C100.044 30.3075 99.7589 30.4946 99.484 30.6758C99.3436 30.7674 99.217 30.853 99.1003 30.9366C98.867 31.1437 98.6534 31.3727 98.5031 31.6753C98.5011 31.7032 98.4991 31.7331 98.5011 31.7609L98.5367 32.5354L97.9256 32.0636C97.4035 31.6594 97.1602 31.0919 96.9249 30.5444C96.7528 30.1442 96.5985 29.7799 96.3533 29.5091C96.0725 30.2597 95.4594 31.072 95.0144 31.5061C94.8147 31.7012 94.603 31.9222 94.3974 32.1352C94.0631 32.4817 93.719 32.8421 93.3947 33.1168L93.0031 33.4513L92.8251 32.9655C92.7302 32.7007 92.7341 32.2806 92.742 31.7928C92.742 31.6574 92.744 31.4862 92.742 31.3209C92.8646 30.9665 92.9438 30.5942 92.9873 30.2219C93.0624 29.5131 93.015 28.7824 92.7895 28.0875C92.7321 27.9143 92.659 27.743 92.5799 27.5858C92.5008 27.4245 92.4177 27.2652 92.3307 27.1099C92.1547 26.7993 91.9569 26.4987 91.7492 26.212C91.3319 25.6306 90.8652 25.097 90.3826 24.5793C89.4235 23.534 88.3199 22.6341 87.2183 21.768L85.5531 20.4898C85.2762 20.2747 85.0073 20.0637 84.7344 19.8427L83.9176 19.1876C82.8298 18.3235 81.7698 17.4236 80.9688 16.3245C80.5654 15.779 80.2311 15.1837 79.9879 14.5545C79.7446 13.9234 79.5904 13.2544 79.5152 12.5755C79.4381 11.8945 79.448 11.2036 79.5034 10.5128C79.531 10.1683 79.5746 9.82187 79.626 9.47942C79.6774 9.14094 79.7585 8.80645 79.8613 8.47992C80.065 7.82488 80.3874 7.20368 80.8343 6.68203C81.2813 6.16238 81.8667 5.75621 82.5273 5.52127C82.1891 5.60887 81.8608 5.74227 81.5542 5.91748C81.2457 6.09468 80.9649 6.31568 80.7137 6.56854C80.2074 7.07824 79.8396 7.71338 79.5864 8.38236C79.4579 8.71885 79.361 9.06727 79.2898 9.41769C79.2186 9.76811 79.1612 10.1185 79.1157 10.4709C79.0228 11.1797 78.999 11.8985 79.0544 12.6173C79.1078 13.336 79.2502 14.0528 79.4994 14.7377C79.7466 15.4226 80.0947 16.0677 80.51 16.657C80.9293 17.2484 81.4217 17.78 81.9359 18.2698C82.4521 18.7616 82.9979 19.2155 83.5438 19.6555L84.3685 20.3086C84.6414 20.5276 84.9222 20.7446 85.2011 20.9577L86.8762 22.22C87.4339 22.6401 87.9857 23.0641 88.5157 23.5062C89.0457 23.9541 89.5579 24.4141 90.0484 24.9039C90.5389 25.3976 91.0076 25.9053 91.4368 26.4469C91.6484 26.7157 91.8501 26.9964 92.034 27.2871C92.216 27.5798 92.39 27.8784 92.5106 28.189C92.7579 28.8182 92.8449 29.519 92.8172 30.2099C92.8033 30.5564 92.7559 30.9028 92.6728 31.2393C92.6708 31.2552 92.6392 31.303 92.6352 31.3169H92.6412C92.6194 31.3488 92.5977 31.3806 92.5719 31.4165C92.3208 31.8127 92.1764 32.2905 92.0221 32.7963C91.8185 33.4573 91.6108 34.1442 91.1381 34.6897C90.8909 34.9724 90.5883 35.2313 90.2956 35.4802C90.1789 35.5817 90.0662 35.6773 89.9574 35.7728C89.8309 35.8565 89.6944 35.9202 89.5619 35.9899C89.5619 36.0098 89.556 36.0635 89.5441 36.1949L89.5619 35.9899C89.5382 36.0038 89.4986 36.0416 89.4749 36.0536C89.3978 36.0914 89.3226 36.1292 89.2474 36.1651C88.9172 36.3184 88.579 36.4597 88.2349 36.5772C88.0628 36.6369 87.8908 36.6907 87.7167 36.7325C87.6831 36.7405 87.6515 36.7464 87.6178 36.7544C87.9244 36.3861 88.1577 35.95 88.2922 35.4861C88.4742 34.8809 88.4959 34.2417 88.4326 33.6265C88.3634 33.0093 88.2072 32.406 87.9817 31.8326C87.7543 31.2592 87.4636 30.7117 87.1135 30.202C86.9375 29.9471 86.7476 29.7022 86.534 29.4713C86.3264 29.2423 86.1108 29.0312 85.8854 28.8262C85.4384 28.412 84.9677 28.0337 84.4891 27.6694C83.5299 26.9427 82.5312 26.2956 81.5977 25.5828C80.6643 24.87 79.7881 24.0915 79.0959 23.1597C78.9259 22.9288 78.7637 22.6859 78.6173 22.441C78.469 22.1881 78.3326 21.9333 78.204 21.6704C77.9449 21.1448 77.7313 20.5993 77.5514 20.0398C77.3734 19.4803 77.2251 18.9089 77.1183 18.3295C77.0095 17.7501 76.9403 17.1608 76.9047 16.5714C76.8394 15.3908 76.9304 14.1942 77.2527 13.0414C76.8256 14.1603 76.6476 15.3728 76.6436 16.5774C76.6397 17.1807 76.6871 17.7879 76.7702 18.3872C76.8532 18.9865 76.9739 19.5819 77.142 20.1672C77.3061 20.7526 77.5098 21.324 77.759 21.8815C77.8836 22.1582 78.0201 22.437 78.1704 22.6998C78.3266 22.9706 78.4868 23.2274 78.6668 23.4783C79.0228 23.978 79.4262 24.4399 79.8613 24.87C80.2964 25.2961 80.7631 25.6843 81.2398 26.0527C82.195 26.7894 83.1898 27.4484 84.1351 28.1492C84.5247 28.4399 84.7838 28.6091 85.4958 29.2582C85.7094 29.4533 85.919 29.6584 86.1187 29.8655C86.3106 30.0686 86.4925 30.2916 86.6606 30.5245C86.9949 30.9904 87.2777 31.5001 87.5011 32.0337C87.7207 32.5653 87.8927 33.1208 87.9738 33.6902C88.0569 34.2577 88.045 34.8371 87.9105 35.3866C87.776 35.9361 87.4992 36.4458 87.0977 36.852L86.8169 37.1367L87.2065 37.1188C87.4141 37.1088 87.6 37.061 87.782 37.0053C87.9659 36.9515 88.1399 36.8838 88.314 36.8121C88.6601 36.6688 88.9943 36.5075 89.3206 36.3263C89.3918 36.2865 89.465 36.2427 89.5382 36.2009C89.5757 36.3582 89.6153 36.5155 89.6549 36.6788C89.8289 37.3716 89.912 38.0904 89.9911 38.7892C90.0563 39.3427 90.1216 39.9161 90.2343 40.4577C90.3826 41.1844 90.8889 41.941 91.3794 42.6737C91.9885 43.5836 92.6174 44.5214 92.6669 45.5189C93.0031 45.6065 93.7922 45.6981 94.2035 45.7479C94.696 45.8056 94.876 45.8275 94.9808 45.8593C95.7659 46.1042 95.9044 46.1799 96.0982 46.6697C96.1437 46.7852 96.201 46.9305 96.3098 47.1376C96.3513 47.2152 96.4087 47.3108 96.468 47.4104C96.6618 47.7269 96.8754 48.0833 96.9446 48.4357C97.0494 48.9813 96.9585 49.4332 96.6737 49.7817C96.2742 50.2715 95.5207 50.5084 94.3677 50.5084C93.9049 50.5084 93.4599 50.4725 93.102 50.4427L92.8923 50.4268C92.5898 50.4029 92.2476 50.3949 91.8857 50.3889C91.146 50.375 90.3826 50.361 89.7577 50.2018C88.5019 49.8852 88.3199 49.1525 88.1281 48.378C88.0727 48.151 88.0153 47.9161 87.9263 47.6652C87.7306 47.1097 87.2282 46.8389 86.6507 46.5243C86.1029 46.2277 85.5353 45.9211 85.1793 45.3377C85.0132 45.0669 84.9123 44.8021 84.8135 44.5512C84.673 44.1869 84.5405 43.8444 84.2162 43.502C83.969 43.2372 83.6921 43.0062 83.4014 42.7613C82.9762 42.4029 82.5312 42.0326 82.1772 41.5468C81.4435 40.5433 80.5199 39.2113 79.8712 37.7997C79.8059 37.6663 79.7525 37.5229 79.6972 37.3716V37.3676C79.3491 36.9575 78.9516 36.6051 78.4473 36.3721C78.3563 36.3303 78.2633 36.2925 78.1684 36.2586C78.1348 36.2626 78.1012 36.2666 78.0695 36.2726C77.8757 36.2985 77.676 36.3224 77.4782 36.3224C76.074 36.3164 74.9013 35.8385 73.8808 34.8629C73.7324 34.7196 73.6019 34.5583 73.4753 34.401C73.2222 34.0844 73.0304 33.8694 72.8148 33.7898L72.8207 33.7858H72.8267V33.7818C72.799 33.7719 72.7673 33.7639 72.7317 33.7579C72.712 33.7539 72.6882 33.75 72.6665 33.748C72.6902 33.75 72.712 33.7539 72.7317 33.7579C72.7673 33.7639 72.799 33.7719 72.8247 33.7818C73.0719 33.6424 73.325 33.521 73.5881 33.4015C73.8926 33.2622 74.2051 33.1288 74.5196 32.9834C74.832 32.8341 75.1505 32.6728 75.4491 32.4658C76.0384 32.0616 76.5625 31.5399 76.9343 30.9227C77.3081 30.3055 77.5237 29.6246 77.6305 28.9357C77.2903 29.5449 76.96 30.1402 76.5487 30.6519C76.1393 31.1656 75.6528 31.5977 75.1129 31.97C74.5888 32.3343 73.9599 32.6171 73.3686 32.9854C73.0719 33.1706 72.7772 33.3737 72.5201 33.6225L72.53 33.6285C72.4707 33.6803 72.3955 33.748 72.2947 33.8535L72.3065 33.8575C72.2848 33.8814 72.263 33.9072 72.2413 33.9331C71.8833 34.2437 71.4561 34.8809 71.2682 35.1636C71.2109 35.2492 71.1595 35.3249 71.116 35.3886C70.6374 36.0735 70.2319 36.8321 69.8364 37.5667C69.4329 38.3253 69.0097 39.1098 68.5054 39.8325C68.2859 40.1411 68.0604 40.4497 67.8429 40.7484C67.2832 41.509 66.7077 42.2974 66.2647 43.1356C65.9265 43.7867 65.7109 44.376 65.616 44.9435C65.5092 45.5627 65.4954 45.8812 65.5033 46.0365C65.6081 46.0266 65.7228 46.0186 65.8157 46.0365C66.1816 46.1182 66.4605 46.3909 66.595 46.5462C66.7294 46.7035 66.7868 46.8748 66.8244 47.0022C66.8422 47.056 66.86 47.1077 66.8758 47.1396C66.9074 47.1495 66.9747 47.1575 67.0241 47.1615C67.0815 47.1674 67.1448 47.1754 67.212 47.1894C67.4592 47.2431 67.6926 47.3347 67.918 47.4223L68.0209 47.4641C68.4461 47.6294 69.0255 47.8544 69.2569 48.3481C69.4982 48.8558 69.5318 49.2779 69.3578 49.6343C69.0631 50.2535 68.2345 50.4467 67.57 50.604C66.8046 50.7831 65.6397 50.9962 64.4314 50.9962C63.4227 50.9962 62.5684 50.8469 61.89 50.5502C61.3501 50.3133 60.4147 49.8115 60.1932 49.1087C59.9914 48.4736 60.2762 47.9818 60.5056 47.5876C60.5887 47.4462 60.6658 47.3108 60.7173 47.1774C60.8102 46.9484 60.83 46.8349 60.8359 46.7872C60.8023 46.7712 60.7509 46.7493 60.7113 46.7294C60.5294 46.6498 60.2822 46.5383 60.0349 46.2834C59.41 45.6344 59.7047 44.4318 59.7699 44.1949C59.9321 43.6135 60.1497 43.1157 60.3593 42.6339C60.6856 41.8853 60.9921 41.1785 61.0317 40.2666C61.097 38.7255 61.5044 37.296 61.896 35.9122C62.1254 35.1039 62.3627 34.2696 62.5328 33.4155C62.6534 32.8122 62.5703 32.5972 62.511 32.5235C62.4418 32.4399 62.2836 32.3981 62.0364 32.3981C61.8505 32.3981 61.6191 32.4219 61.2908 32.4717C60.7726 32.5514 60.1773 32.5892 59.4614 32.5892C58.9334 32.5892 58.4073 32.5693 57.9386 32.5514C57.7705 32.5454 57.6004 32.5414 57.4283 32.5414C56.9873 32.5354 56.5305 32.5315 56.0776 32.4498C55.1975 32.2945 54.264 31.9043 53.3582 31.528C52.8757 31.3269 52.4188 31.1377 51.9857 30.9884C51.6792 30.8829 51.3608 30.7475 51.0246 30.6022C50.2651 30.2796 49.48 29.9451 48.8036 29.9451H48.7621C48.1332 29.9591 47.8009 30.4787 47.4153 31.08C47.3006 31.2552 47.1859 31.4364 47.0593 31.6056C46.6796 32.1193 46.4541 32.629 46.3117 33.308C46.2405 33.6424 46.1812 33.9829 46.114 34.3413C45.8944 35.5498 45.669 36.7982 45.0776 37.8913C44.9194 38.184 44.7434 38.4587 44.5733 38.7255C44.0413 39.5478 43.5845 40.2606 43.7823 41.2521C43.9741 42.2198 44.8581 42.9286 45.7164 43.6155C46.0349 43.8703 46.3355 44.1132 46.6044 44.3661C47.6605 45.3656 48.4595 45.704 49.7727 45.704C49.8973 45.704 50.0357 45.7001 50.1761 45.6941C50.3205 45.6861 50.455 45.6762 50.5816 45.6662C50.7635 45.6523 50.9356 45.6364 51.1076 45.6364C51.519 45.6364 52.0114 45.712 52.5276 46.2675C52.8895 46.6577 53.4472 47.5378 53.3978 48.2386C53.3049 49.5766 51.6535 49.6164 50.4471 49.6463C50.1188 49.6542 49.8083 49.6622 49.5907 49.6941C49.3317 49.7319 49.0765 49.7757 48.8076 49.8195C48.0363 49.9509 47.2432 50.0863 46.4304 50.0863C46.0744 50.0863 45.7481 50.0624 45.4257 50.0106C44.5654 49.8713 44.3083 49.5507 43.9543 49.1047C43.8614 48.9892 43.7566 48.8598 43.628 48.7145C43.2186 48.2585 42.7499 48.0017 42.206 47.707C42.1072 47.6533 42.0063 47.5975 41.9054 47.5438C40.6733 46.8568 39.6983 46.0027 38.6403 45.0371C38.4108 44.826 38.1419 44.599 37.8551 44.3561C37.0284 43.6573 36.093 42.8649 35.5768 42.0605C34.9973 41.1585 35.1912 39.96 35.3632 38.9027C35.4245 38.5204 35.4839 38.1621 35.4997 37.8515C35.5827 36.191 35.3731 34.8908 34.8411 33.7659L34.7996 33.6783C34.6552 33.3717 34.4159 32.86 34.1331 32.7425C34.0876 32.7246 34.052 32.7126 34.0204 32.7067L33.9373 32.7007C33.8701 32.7106 33.8048 32.7803 33.6585 32.9755C33.5022 33.1805 33.3064 33.4394 32.9781 33.6106C32.3769 33.9252 31.7322 34.0187 31.1112 34.1083C30.3794 34.2139 29.6912 34.3154 29.1572 34.7654C28.8368 35.0382 28.5659 35.3388 28.3009 35.6594C27.8381 36.625 26.8671 37.5349 26.0799 37.9132C25.7378 38.0784 25.3778 38.1601 25.0337 38.2377C25.0238 38.2417 25.0159 38.2437 25.006 38.2457C24.5274 38.4368 24.035 38.6379 23.6454 38.9067C22.9789 39.3706 22.5893 40.0575 22.1859 40.84C21.8932 41.4015 21.7962 41.9231 21.6855 42.5304C21.6341 42.8111 21.5807 43.0978 21.5055 43.4084C21.4739 43.5318 21.4403 43.6553 21.4086 43.7787C21.2207 44.4955 21.0408 45.1784 21.2484 45.8534C21.4501 45.8434 21.6657 45.7598 21.8912 45.6722C22.2096 45.5468 22.5774 45.4054 22.9928 45.4392C23.8076 45.503 24.5492 46.0565 25.0911 46.4567C25.6725 46.8887 26.0878 47.7588 26.1056 48.5731C26.1195 49.1983 25.896 49.7299 25.4787 50.0704C25.0496 50.4188 24.2545 50.5064 23.6157 50.5801C23.4733 50.596 23.3428 50.6119 23.24 50.6278C22.5853 50.7274 21.8714 50.817 21.1258 50.809C21.0447 50.809 20.9636 50.809 20.8786 50.807C19.6524 50.7991 17.9694 50.7871 17.4513 49.3735C17.2258 48.7563 17.1071 48.1669 16.9924 47.5955C16.8065 46.6657 16.6305 45.7897 16.0036 44.9554C15.171 43.8464 15.347 42.7912 15.5349 41.6762C15.5724 41.4572 15.61 41.2302 15.6417 40.9973C15.7564 40.173 15.8098 39.4821 15.697 38.7932C15.6713 38.6339 15.6021 38.4289 15.5309 38.2098C15.3747 37.736 15.1987 37.2004 15.3153 36.7464C15.5645 35.7629 16.4861 35.4304 17.297 35.1377C17.7202 34.9864 18.1217 34.839 18.4005 34.622C18.1078 32.4419 19.0987 30.2059 19.8977 28.3981C20.1449 27.8386 20.3426 27.2413 20.5543 26.6102C20.9004 25.5748 21.2544 24.5056 21.8457 23.6097L22.0514 23.2951C22.7218 22.2797 23.414 21.2284 24.0409 20.1672C24.1299 20.0179 24.2189 19.8686 24.3059 19.7252C24.6718 19.1259 25.012 18.5605 25.2651 17.8755C25.6211 16.9099 25.981 16.1454 26.4438 15.4246C25.5341 15.4764 23.7977 15.4963 20.4277 15.5321C17.2001 15.564 13.5433 15.6018 12.8076 15.7213C10.6678 16.0697 5.48621 17.3161 3.52434 21.3399C2.80644 22.8113 2.42276 25.1906 3.27119 26.9427C3.89021 28.2209 5.95492 30.3513 7.23449 30.4628C7.40457 30.4767 7.56872 30.4907 7.72496 30.5046C9.33085 30.638 10.3929 30.7276 11.9236 31.7669C12.956 32.4697 14.0714 33.5309 15.3292 35.0143L15.701 35.4543L15.1453 35.5976C13.7767 35.954 12.3607 36.3204 10.9624 36.3204C9.96964 36.3204 9.05792 36.1372 8.17983 35.7649C7.08814 35.301 6.36628 34.9943 5.84615 33.8356C5.79077 33.7121 5.76902 33.5449 5.73738 33.2303C5.71958 33.0571 5.68793 32.7584 5.64838 32.6171C3.33052 31.7769 1.69893 30.3612 0.795122 28.41C-0.0374868 26.6241 -0.217457 24.4479 0.261145 21.9532C0.627018 20.0478 1.62378 18.3753 3.14264 17.117C8.47846 12.6969 14.6963 12.4122 21.2761 12.1115L22.1384 12.0697C24.9408 11.9383 27.0806 11.5122 29.7723 10.5526C32.7645 9.48539 35.2762 8.65911 38.0885 8.5078L38.1498 8.50382C38.8835 8.46798 39.6627 8.44807 40.4657 8.44807C42.8508 8.44807 45.2655 8.60934 47.6012 8.76265C49.925 8.91795 52.3298 9.07723 54.6932 9.07723C54.9918 9.07723 55.2865 9.07723 55.5871 9.07126C58.6565 9.01551 61.7081 8.51178 64.6608 8.02398C65.9186 7.81492 67.2199 7.59989 68.5153 7.4207L68.6656 7.40079C70.3842 7.16386 72.0494 6.73778 73.7423 6.42917C73.8017 6.41922 73.861 6.40528 73.9164 6.39134C73.9124 6.39532 73.9085 6.39732 73.9025 6.4013C73.8155 6.46501 73.7285 6.5347 73.6454 6.60239C73.3864 6.82339 73.1431 7.06033 72.9137 7.31518C72.6882 7.57401 72.4825 7.84479 72.2907 8.12751C72.0969 8.41024 71.9288 8.7069 71.7726 9.01352C71.6163 9.31814 71.4759 9.63272 71.3592 9.95527C71.2406 10.2778 71.1417 10.6083 71.0606 10.9428C71.021 11.1121 70.9854 11.2813 70.9558 11.4505L70.8767 11.9443C70.665 13.2424 70.4 14.5386 69.8661 15.7153C69.5931 16.2967 69.251 16.8522 68.7605 17.2544C68.5173 17.4574 68.2364 17.6127 67.9299 17.7143C67.6234 17.8158 67.2951 17.8536 66.9628 17.8437C67.2871 17.9154 67.6293 17.9293 67.9655 17.8696C68.3037 17.8118 68.63 17.6725 68.9247 17.4833C69.2174 17.2922 69.4685 17.0473 69.692 16.7825C69.9155 16.5177 70.0994 16.223 70.2675 15.9224C70.5998 15.3211 70.8331 14.674 71.023 14.0229C71.1199 13.6984 71.201 13.3679 71.2722 13.0374C71.3454 12.7069 71.4067 12.3764 71.464 12.0439L71.5431 11.5501C71.5688 11.3928 71.5985 11.2375 71.6341 11.0782C71.7053 10.7656 71.7943 10.455 71.8991 10.1504C72.0039 9.84576 72.1186 9.54512 72.2531 9.25045C72.3856 8.95578 72.5379 8.67106 72.6961 8.38834C72.8563 8.1076 73.0343 7.83682 73.2301 7.576C73.42 7.31518 73.6276 7.06431 73.8531 6.82937C74.0172 6.65217 74.1932 6.48492 74.3772 6.32564L74.3811 6.30971L74.4049 6.30573C74.569 6.16636 74.7391 6.03097 74.9171 5.90354C75.0318 5.83784 75.1465 5.77612 75.2652 5.7124C75.7438 5.45158 75.9752 5.10912 76.2639 4.67508C76.4122 4.4501 76.5665 4.21914 76.7682 3.97822C77.1835 3.49042 77.6582 2.99466 78.3365 2.66415C78.5343 2.56659 78.738 2.48894 78.9595 2.42523C79.8316 2.17635 80.6939 1.95336 81.6689 1.97526C81.8212 1.97725 81.9676 1.97924 82.1119 1.98123C82.6756 1.98521 83.2115 1.9872 83.8444 2.14848C84.3724 2.28387 84.7838 2.23807 85.3593 1.97725C85.7113 1.81797 86.0574 1.64077 86.4055 1.46556C86.6092 1.36401 86.8109 1.26048 87.0107 1.16292C88.136 0.615391 89.463 0.0559137 91.0195 0.346603C91.7809 0.487965 92.5443 0.36054 93.3492 0.219177C93.4065 0.207231 93.4619 0.197276 93.5173 0.18533V0.189312C94.2767 0.0559136 95.0559 -0.0655386 95.8688 0.0439675C96.4779 0.125599 97.0672 0.24307 97.619 0.774672C97.8603 1.00762 98.0047 1.30428 98.1332 1.57108C98.2242 1.75824 98.3251 1.97128 98.4141 2.02702C98.5822 2.13454 98.8274 2.18631 99.0845 2.24006C99.4523 2.31771 99.8696 2.40731 100.232 2.68605C100.813 3.13204 101.278 3.807 101.58 4.63725C101.673 4.89011 101.729 5.17682 101.79 5.48344C102.017 6.62031 102.213 7.14196 103.016 7.02847C103.099 7.01652 103.192 6.98666 103.289 6.93887C103.532 6.81742 103.801 6.59243 103.991 6.34953L104.547 5.63077L104.63 6.53868C104.701 7.3092 104.434 7.94036 103.867 8.34652C104.262 8.66907 104.784 9.15687 105.215 9.7721C105.387 9.99907 105.522 10.2479 105.654 10.4928C105.7 10.5765 105.743 10.6581 105.789 10.7417L105.755 10.7636C105.842 10.9846 105.913 11.2156 105.961 11.4565C106.01 11.7233 106.016 11.8627 106.018 11.9523C106.018 11.9742 106.018 11.9881 106.02 12.006C106.034 12.0558 106.178 12.2887 106.264 12.4301C106.459 12.7487 106.75 13.0672 107.031 13.3739C107.108 13.4575 107.181 13.5391 107.252 13.6148C107.589 13.9931 107.889 14.3475 108.18 14.6919C108.749 15.3689 109.289 16.01 110.013 16.6929C110.102 16.7765 110.187 16.8522 110.264 16.9219C110.713 17.3201 111.099 17.6625 110.976 18.4828V18.4808ZM72.5023 33.742C72.4727 33.742 72.443 33.746 72.4113 33.748C72.443 33.744 72.4746 33.742 72.5023 33.742ZM101.404 9.24448C101.034 9.38385 100.651 9.46548 100.259 9.52919C99.4741 9.65861 98.6494 9.7044 97.8207 9.96921C97.617 10.0389 97.4114 10.1205 97.2156 10.2241C97.0198 10.3296 96.8279 10.455 96.6579 10.6024C96.3137 10.897 96.0507 11.2853 95.8885 11.6914C95.8035 11.9005 95.7461 12.1195 95.7224 12.3445C95.6967 12.5695 95.7086 12.7984 95.7659 13.0175C95.8253 13.2345 95.9281 13.4396 96.0705 13.6048C96.2149 13.7701 96.3929 13.8955 96.5827 13.9771C96.4285 13.8378 96.2959 13.6805 96.2089 13.5092C96.1199 13.336 96.0665 13.1528 96.0547 12.9657C96.029 12.5934 96.1377 12.2211 96.3118 11.8945C96.4937 11.558 96.7271 11.2674 97.0158 11.0424C97.3026 10.8194 97.6408 10.6581 98.0067 10.5406C98.7364 10.3037 99.5512 10.2141 100.358 9.99111C100.762 9.87961 101.165 9.73427 101.531 9.51127C101.895 9.28828 102.219 8.99162 102.429 8.63124C102.118 8.90401 101.774 9.11108 101.404 9.24647V9.24448ZM33.9393 32.7106C33.9393 32.7106 37.2143 26.642 43.3927 26.4051C43.3927 26.4051 37.0205 25.3498 33.9393 32.7106ZM44.4033 22.6958C44.3004 20.87 44.6267 19.3091 43.8218 17.2962C43.6913 16.9716 43.4025 16.7586 43.1395 16.5336C44.5338 17.7362 43.5687 20.6391 44.1659 24.2408C44.7632 27.8466 49.0489 29.9192 49.0489 29.9192C48.3844 29.4195 47.7456 28.8839 47.1582 28.2926C45.6393 26.7694 44.5259 24.8859 44.4033 22.6938V22.6958ZM64.1169 27.9163C63.8954 28.3005 63.7708 28.7266 63.6897 29.1507C63.5394 30.0068 63.5592 30.8729 63.668 31.7211C63.6838 31.8286 63.7016 31.9302 63.7115 32.0257C63.7253 32.1233 63.7332 32.2228 63.7411 32.3224C63.7589 32.5215 63.7649 32.7206 63.7649 32.9217C63.7649 33.3219 63.7372 33.7281 63.6877 34.1322C63.6007 34.9466 63.4247 35.7708 63.3792 36.617C63.668 35.8266 63.9646 35.0461 64.1525 34.2119C64.2455 33.7958 64.3068 33.3677 64.3305 32.9336C64.3404 32.7166 64.3384 32.4996 64.3305 32.2806C64.3226 32.1711 64.3107 32.0616 64.2989 31.9541C64.289 31.8426 64.2712 31.737 64.2593 31.6375C64.1545 30.8311 64.0951 30.0128 64.1525 29.2104C64.1841 28.8122 64.2455 28.414 64.378 28.0397C64.5105 27.6674 64.7339 27.3229 65.0899 27.092C64.8862 27.1457 64.6944 27.2552 64.5283 27.4006C64.3641 27.5459 64.2296 27.7251 64.1149 27.9143L64.1169 27.9163Z" fill="white"/>
<path d="M46.2661 27.1295L46.2364 27.0121L44.9964 23.032H44.9786V27.1295H43.1433V17.1167H44.9786V21.1545L46.2562 17.1167H48.1271L46.5351 22.1102L48.1271 27.1295H46.2661Z" fill="white"/>
<path d="M48.4436 27.1295V17.1167H53.1881V18.9644H50.2789V21.1863H52.6007V23.032H50.2789V25.2679H53.1881V27.1295H48.4436Z" fill="white"/>
<path d="M56.1902 17.1167H58.0235V27.1295H56.1902V17.1167Z" fill="white"/>
<path d="M61.7732 27.1295L60.6795 23.3048V27.1295H58.8442V17.1167H60.6459L61.7396 20.7065V17.1167H63.5887V27.1295H61.7732Z" fill="white"/>
<path d="M66.927 17.1167H68.7623V27.1295H66.927V17.1167Z" fill="white"/>
<path d="M72.5102 27.1295L71.4186 23.3048V27.1295H69.5833V17.1167H71.383L72.4766 20.7065V17.1167H74.3258V27.1295H72.5102Z" fill="white"/>
<path d="M78.0694 18.9644H77.0094V25.2679H78.0694V18.9644ZM75.1741 27.1295V17.1167H78.8051C79.4202 17.1167 79.9186 17.6204 79.9186 18.2376V26.0086C79.9186 26.6159 79.4083 27.1295 78.8051 27.1295H75.1741Z" fill="white"/>
<path d="M80.8521 17.1167H82.6854V27.1295H80.8521V17.1167Z" fill="white"/>
<path d="M86.4034 18.9644H85.3453V22.3531H86.4034V18.9644ZM86.4034 27.1295V24.2008H85.3453V27.1295H83.5081V18.2376C83.5081 17.6204 84.0084 17.1167 84.6215 17.1167H87.1371C87.7502 17.1167 88.2506 17.6204 88.2506 18.2376V27.1295H86.4014H86.4034Z" fill="white"/>
<path d="M35.0052 27.1217V22.7992L34.4732 24.7843H32.717L32.1968 22.8112V27.1217H30.3635V17.1089H32.1632L33.603 21.6843L35.0408 17.1089H36.8424V27.1217H35.0052Z" fill="#001744"/>
<path d="M36.9196 17.0312H36.7614H35.0962H34.9815L34.9459 17.1427L33.601 21.4234L32.2542 17.1427L32.2186 17.0312H32.1039H30.4407H30.2825V17.1905V27.0441V27.2034H30.4407H32.1178H32.276V23.4224L32.6241 24.7484L32.6557 24.8659H32.7763H34.4119H34.5325L34.5642 24.7484L34.9261 23.3985V27.0441V27.2034H35.0843H36.7634H36.9216V27.0441V17.1905V17.0312H36.9196ZM36.7634 17.1885V27.0421H35.0843V22.1999L34.4139 24.7046H32.7783L32.1217 22.1999V27.0421H30.4446V17.1885H32.1079L33.603 21.9451L35.0982 17.1885H36.7634Z" fill="#001744"/>
<path d="M40.6949 18.9566H39.6349V22.3453H40.6949V18.9566ZM40.6949 27.1217V24.1929H39.6349V27.1217H37.7996V18.2298C37.7996 17.6126 38.2979 17.1089 38.913 17.1089H41.4306C42.0437 17.1089 42.544 17.6126 42.544 18.2298V27.1217H40.6949Z" fill="#001744"/>
<path d="M39.7142 19.0362H40.616V22.2656H39.7142V19.0362ZM41.4328 17.0312H38.9152C38.2586 17.0312 37.7246 17.5688 37.7246 18.2318V27.0441V27.2034H37.8828H39.5599H39.7181V27.0441V24.2746H40.62V27.0441V27.2034H40.7782H42.4711H42.6293V27.0441V20.189V18.6121V18.2318C42.6293 17.5708 42.0953 17.0312 41.4367 17.0312H41.4328ZM39.5579 22.4249H40.7742V18.8769H39.5579V22.4249ZM41.4328 17.1885C41.9925 17.1885 42.4671 17.6524 42.4671 18.2298V18.6101V20.187V27.0421H40.7742V24.1133H39.5579V27.0421H37.8808V18.2298C37.8808 17.6524 38.3417 17.1885 38.9152 17.1885H41.4328Z" fill="#001744"/>
<path d="M48.4851 17.0313H48.2696H46.5648H46.4501L46.4145 17.1408L45.309 20.637V17.1886V17.0293H45.1508H43.4717H43.3135V17.1886V27.0421V27.2014H43.4717H45.1508H45.309V27.0421V23.4862L46.4145 27.0322L46.4264 27.082L46.456 27.2014H48.2696H48.4851L48.4199 26.9944L46.8694 22.1024L48.4199 17.2364L48.4851 17.0293V17.0313Z" fill="#001744"/>
<path d="M53.3582 17.1885V18.8769H50.4491V21.2562H52.7709V22.9446H50.4491V25.3378H53.3582V27.0401H48.772V17.1865H53.3582V17.1885Z" fill="#001744"/>
<path d="M58.1956 17.1885H58.0513H56.5067H56.3623V17.3438V27.044V27.1993H56.5067H58.0513H58.1956V27.044V17.3438V17.1885Z" fill="#001744"/>
<path d="M63.9171 17.0312H63.7589H62.068H61.9097V17.1905V20.1731L60.9862 17.1447L60.9525 17.0332H59.1726H59.0144V17.1925V27.0461V27.2054H59.1726H60.8497H61.0079V23.8644L61.9295 27.0899L61.9631 27.2054H63.7589H63.9171V27.0461V17.1925V17.0332V17.0312Z" fill="#001744"/>
<path d="M68.9325 27.046H67.2554V17.3457H68.9325V27.046Z" fill="#001744"/>
<path d="M74.6559 17.1885H74.4977H72.8048H72.6466V17.3438V20.2805L71.723 17.298L71.6894 17.1885H71.5727H69.9094H69.7512V17.3438V27.044V27.1993H69.9094H71.5865H71.7447V27.044V23.9122L72.6663 27.0878L72.7 27.2013H74.4977H74.6559V17.3458V17.1905V17.1885Z" fill="#001744"/>
<path d="M79.0544 17.0312H75.5025H75.3442V17.1905V27.0441V27.2034H75.5025H79.0544C79.7011 27.2034 80.2469 26.6539 80.2469 26.0028V18.2318C80.2469 17.5708 79.713 17.0312 79.0544 17.0312ZM77.3378 19.0362H78.2396V25.1805H77.3378V19.0362Z" fill="#001744"/>
<path d="M83.0138 17.0312H81.1785H81.0203V27.0441V27.2034H81.1785H82.8556H83.0138V27.0441V17.1905V17.0312Z" fill="#001744"/>
<path d="M87.3864 17.0312H84.8708C84.2142 17.0312 83.6782 17.5688 83.6782 18.2318V27.0441V27.2034H83.8364H85.5155H85.6737V27.0441V24.2746H86.5755V27.0441V27.2034H86.7338H88.4247H88.5829V27.0441V20.189V18.6121V18.2318C88.5829 17.5708 88.047 17.0312 87.3904 17.0312H87.3864ZM86.5736 22.2676H85.6717V19.0382H86.5736V22.2676Z" fill="#001744"/>
</g>
<defs>
<clipPath id="clip0_2609_813">
<rect width="111" height="51" fill="white"/>
</clipPath>
</defs>
</svg>
