<svg width="49" height="31" viewBox="0 0 49 31" fill="none" xmlns="http://www.w3.org/2000/svg">
<path d="M48.5793 19.6427C48.5793 19.6273 48.587 19.6119 48.5947 19.5965C48.5947 19.5888 48.5947 19.5811 48.5947 19.5734C48.5947 19.558 48.6024 19.5426 48.6024 19.5195C48.6024 19.5041 48.5947 19.4964 48.5947 19.481C48.5947 19.4348 48.6024 19.3886 48.6024 19.3424C48.6024 16.17 46.8545 13.2517 44.1364 11.7117C45.2991 10.5875 46.0229 9.0167 46.0229 7.2688C46.0229 3.8577 43.2509 1.0857 39.8398 1.0857C36.4287 1.0857 33.6567 3.8577 33.6567 7.2688C33.6567 9.0167 34.3882 10.5875 35.5509 11.7117C33.8877 12.6511 32.571 14.1064 31.8164 15.8543C31.185 15.3307 30.4843 14.8687 29.7451 14.4837C31.4776 12.9668 32.5787 10.7492 32.5787 8.2698C32.5787 3.7114 28.8673 0 24.3089 0C19.7505 0 16.0314 3.7268 16.0314 8.2852C16.0314 10.7646 17.1325 12.9822 18.865 14.4991C18.1258 14.8841 17.4328 15.3461 16.7937 15.8697C16.0391 14.1218 14.7147 12.6665 13.0515 11.7271C14.2142 10.6029 14.9457 9.0244 14.9457 7.2842C14.9457 3.8731 12.1737 1.1011 8.7626 1.1011C5.3515 1.1011 2.5795 3.8731 2.5795 7.2842C2.5795 9.0244 3.3033 10.6029 4.466 11.7271C1.7556 13.2594 0 16.1854 0 19.3578C0 19.404 1.76486e-07 19.4502 0.00770018 19.4964C0.00770018 19.5118 0 19.5195 0 19.5349C0 19.5503 0.00770018 19.5734 0.00770018 19.5888C0.00770018 19.5965 0.00770018 19.6042 0.00770018 19.6196C0.00770018 19.635 0.0153991 19.6504 0.0230991 19.6658C0.0384991 19.7428 0.053899 19.8121 0.084699 19.8737C0.100099 19.9045 0.123199 19.9353 0.146299 19.9661C0.169399 19.9969 0.184799 20.0431 0.215599 20.0739C0.230999 20.0893 0.2464 20.1047 0.2618 20.1124C0.2618 20.1124 0.2618 20.1124 0.2695 20.1201C0.2772 20.1278 0.277199 20.1278 0.284899 20.1355C1.4168 21.098 4.4506 23.2617 8.7626 23.2617C8.9243 23.2617 9.0937 23.2617 9.2631 23.254C10.4412 23.2078 11.5962 22.9999 12.7281 22.6303C12.5664 23.408 12.474 24.2088 12.474 25.0173C12.474 25.0943 12.474 25.1713 12.4817 25.2483C12.4817 25.4254 12.5433 25.5948 12.6588 25.7411C12.6819 25.7719 12.705 25.8104 12.7358 25.8412C12.7358 25.8412 12.7358 25.8489 12.7435 25.8489C14.2912 27.1579 18.4415 30.1147 24.3166 30.1147C24.5322 30.1147 24.7555 30.107 24.9788 30.0993C30.3303 29.8991 34.0956 27.3427 35.8666 25.8412C35.9205 25.795 35.9667 25.7334 36.0052 25.6641C36.0822 25.5409 36.1284 25.4023 36.1284 25.2637C36.1361 25.179 36.1361 25.0943 36.1361 25.0173C36.1361 24.2011 36.0437 23.4003 35.882 22.6226C37.1679 23.0384 38.4923 23.2617 39.8321 23.2617C40.0015 23.2617 40.1632 23.2617 40.3326 23.254C43.2124 23.1462 46.0537 22.0451 48.3175 20.1432C48.3252 20.1355 48.3329 20.1278 48.3406 20.1201C48.3406 20.1201 48.3406 20.1201 48.3483 20.1124C48.3637 20.097 48.3791 20.0893 48.3945 20.0739C48.4253 20.0431 48.4407 20.0046 48.4638 19.9661C48.4869 19.9353 48.51 19.9122 48.5254 19.8737C48.5485 19.7967 48.5639 19.7197 48.5793 19.6427ZM35.189 7.2842C35.189 4.7201 37.2757 2.6411 39.8321 2.6411C42.3962 2.6411 44.4752 4.7278 44.4752 7.2842C44.4752 9.8483 42.3885 11.9273 39.8321 11.9273C37.2757 11.9273 35.189 9.8483 35.189 7.2842ZM17.5714 8.2852C17.5714 4.5738 20.5898 1.5554 24.3012 1.5554C28.0126 1.5554 31.031 4.5738 31.031 8.2852C31.031 11.9966 28.0126 15.015 24.3012 15.015C20.5898 15.015 17.5714 11.9966 17.5714 8.2852ZM4.1195 7.2842C4.1195 4.7201 6.2062 2.6411 8.7626 2.6411C11.3267 2.6411 13.4057 4.7278 13.4057 7.2842C13.4057 9.8483 11.319 11.9273 8.7626 11.9273C6.2062 11.9273 4.1195 9.8483 4.1195 7.2842ZM9.2015 21.6986C5.4747 21.8372 2.7643 20.1278 1.5554 19.173C1.6247 16.3856 3.3264 13.8677 5.8751 12.7512C6.7375 13.2132 7.7231 13.475 8.7703 13.475C9.8098 13.475 10.7954 13.2132 11.6578 12.7512C13.5135 13.5597 14.938 15.1228 15.5848 17.0247C14.5915 18.1181 13.7984 19.3886 13.2671 20.7746C11.9504 21.329 10.5875 21.6447 9.2015 21.6986ZM24.9172 28.5516C19.5426 28.7595 15.6695 26.2185 14.014 24.8864C14.0602 20.8054 16.5627 17.1017 20.3126 15.5232C21.4984 16.1777 22.8613 16.555 24.3089 16.555C25.7565 16.555 27.1194 16.1777 28.3052 15.5232C32.0474 17.1017 34.5576 20.8054 34.6038 24.8864C32.879 26.2801 29.5449 28.3745 24.9172 28.5516ZM40.271 21.6986C38.5924 21.7679 36.9292 21.4368 35.3353 20.7515C34.804 19.3732 34.0109 18.1104 33.0253 17.0247C33.6721 15.1228 35.1043 13.5597 36.9523 12.7512C37.8147 13.2055 38.8003 13.4673 39.8398 13.4673C40.887 13.4673 41.8726 13.2055 42.735 12.7435C45.276 13.86 46.9777 16.3779 47.0547 19.1576C45.0912 20.7053 42.6965 21.6062 40.271 21.6986Z" fill="white"/>
<circle cx="24.3013" cy="8.5" r="7.5" stroke="#F18917" stroke-width="2"/>
</svg>
